<svg width="70" height="70" viewBox="0 0 70 70" fill="none" xmlns="http://www.w3.org/2000/svg">
<path d="M62.8906 39.375C62.8856 43.8697 61.0978 48.1788 57.9196 51.3571C54.7413 54.5353 50.4322 56.3231 45.9375 56.3281H21.875C21.4399 56.3281 21.0226 56.1553 20.7149 55.8476C20.4072 55.5399 20.2344 55.1226 20.2344 54.6875C20.2344 54.2524 20.4072 53.8351 20.7149 53.5274C21.0226 53.2197 21.4399 53.0469 21.875 53.0469H45.9375C49.5635 53.0469 53.041 51.6064 55.605 49.0425C58.1689 46.4785 59.6094 43.001 59.6094 39.375C59.6094 35.749 58.1689 32.2715 55.605 29.7075C53.041 27.1436 49.5635 25.7031 45.9375 25.7031H12.7121L23.0344 36.0281C23.1956 36.1783 23.3248 36.3594 23.4145 36.5607C23.5042 36.7619 23.5524 36.9792 23.5563 37.1995C23.5602 37.4198 23.5196 37.6386 23.4371 37.8429C23.3546 38.0472 23.2318 38.2327 23.076 38.3885C22.9202 38.5443 22.7346 38.6671 22.5304 38.7496C22.3261 38.8322 22.1073 38.8727 21.887 38.8688C21.6667 38.8649 21.4494 38.8167 21.2482 38.727C21.0469 38.6374 20.8658 38.5081 20.7156 38.3469L7.59062 25.2219C7.28338 24.9143 7.11081 24.4973 7.11081 24.0625C7.11081 23.6277 7.28338 23.2107 7.59062 22.9031L20.7156 9.77812C21.0266 9.48832 21.438 9.33056 21.863 9.33805C22.288 9.34555 22.6936 9.51774 22.9942 9.81833C23.2948 10.1189 23.4669 10.5244 23.4744 10.9495C23.4819 11.3745 23.3242 11.7859 23.0344 12.0969L12.7121 22.4219H45.9375C50.4322 22.4269 54.7413 24.2147 57.9196 27.3929C61.0978 30.5712 62.8856 34.8803 62.8906 39.375Z" fill="white"/>
</svg>
