<svg width="56" height="52" viewBox="0 0 56 52" fill="none" xmlns="http://www.w3.org/2000/svg">
<path d="M50.3133 29.25C50.3092 32.5889 48.879 35.79 46.3365 38.151C43.7939 40.5119 40.3466 41.84 36.7508 41.8437H17.5008C17.1527 41.8437 16.8189 41.7153 16.5727 41.4868C16.3266 41.2582 16.1883 40.9482 16.1883 40.625C16.1883 40.3018 16.3266 39.9918 16.5727 39.7632C16.8189 39.5346 17.1527 39.4062 17.5008 39.4062H36.7508C39.6516 39.4062 42.4336 38.3362 44.4848 36.4315C46.536 34.5269 47.6883 31.9436 47.6883 29.25C47.6883 26.5564 46.536 23.9731 44.4848 22.0684C42.4336 20.1638 39.6516 19.0937 36.7508 19.0937H10.1705L18.4283 26.7637C18.5573 26.8753 18.6607 27.0099 18.7324 27.1594C18.8042 27.3089 18.8427 27.4703 18.8458 27.6339C18.8489 27.7975 18.8165 27.9601 18.7505 28.1118C18.6845 28.2636 18.5862 28.4015 18.4616 28.5172C18.337 28.6329 18.1885 28.7241 18.0251 28.7854C17.8617 28.8467 17.6866 28.8768 17.5104 28.874C17.3342 28.8711 17.1604 28.8353 16.9994 28.7686C16.8384 28.702 16.6935 28.606 16.5733 28.4862L6.0733 18.7362C5.82751 18.5077 5.68945 18.198 5.68945 17.875C5.68945 17.552 5.82751 17.2423 6.0733 17.0137L16.5733 7.26374C16.8221 7.04846 17.1512 6.93126 17.4912 6.93684C17.8312 6.94241 18.1557 7.07031 18.3961 7.29361C18.6366 7.51691 18.7744 7.81816 18.7804 8.1339C18.7864 8.44963 18.6601 8.75521 18.4283 8.98624L10.1705 16.6562H36.7508C40.3466 16.66 43.7939 17.9881 46.3365 20.349C48.879 22.71 50.3092 25.9111 50.3133 29.25Z" fill="white"/>
</svg>
