<svg width="62" height="58" viewBox="0 0 62 58" fill="none" xmlns="http://www.w3.org/2000/svg">
<path d="M58.0348 12.8815L26.9468 21.239C26.582 21.4335 26.1631 21.5476 25.7299 21.5704L15.0512 24.436H59.4647C60.1371 24.436 60.782 24.657 61.2574 25.0504C61.7329 25.4438 62 25.9773 62 26.5337V47.5112C62 50.293 60.6644 52.9609 58.2871 54.9279C55.9098 56.8949 52.6855 58 49.3235 58H13.8292C10.4671 58 7.24282 56.8949 4.86551 54.9279C2.4882 52.9609 1.15264 50.293 1.15264 47.5112V26.5337C1.15264 26.089 1.31997 25.6736 1.60899 25.3296L0.620221 22.8039C-0.418437 20.1584 -0.14454 17.2799 1.38167 14.8015C2.90787 12.3231 5.56139 10.4478 8.75856 9.58806L42.5136 0.513181C45.7109 -0.346222 49.1899 -0.119595 52.1852 1.14321C55.1806 2.40602 57.447 4.60158 58.4861 7.24697L59.6624 10.2384C59.8702 10.7675 59.8154 11.3432 59.5102 11.8388C59.2049 12.3345 58.6742 12.7096 58.0348 12.8815ZM39.0504 13.5738L45.5661 4.23459C45.0614 4.28303 44.5637 4.37298 44.0805 4.50311L37.7675 6.19809L31.1352 15.7009L39.0453 13.5738M50.6824 5.27088C50.6512 5.32375 50.6173 5.37554 50.581 5.42612L46.2507 11.6355L54.0493 9.53771L53.6588 8.54338C53.1376 7.20755 52.0894 6.05517 50.6824 5.27088ZM30.5521 8.13641L22.6419 10.2635L16.0095 19.7664L23.9197 17.6392L30.5622 8.13641M5.83281 22.506L8.80926 21.7089L15.4366 12.2019L10.3254 13.578C8.40708 14.0938 6.81497 15.219 5.89924 16.706C4.98352 18.1931 4.81918 19.9202 5.44237 21.5075L5.83281 22.506ZM6.22325 28.6315V47.5112C6.22325 49.1803 7.02459 50.781 8.45097 51.9612C9.87736 53.1415 11.812 53.8045 13.8292 53.8045H49.3235C51.3407 53.8045 53.2753 53.1415 54.7017 51.9612C56.1281 50.781 56.9294 49.1803 56.9294 47.5112V28.6315H6.22325Z" fill="white"/>
</svg>
