<svg width="49" height="49" viewBox="0 0 49 49" fill="none" xmlns="http://www.w3.org/2000/svg">
<path fill-rule="evenodd" clip-rule="evenodd" d="M7.73493 19.3416C7.73493 17.8176 8.03511 16.3086 8.61834 14.9006C9.20157 13.4926 10.0564 12.2133 11.1341 11.1357C12.2118 10.058 13.4911 9.20323 14.8992 8.62002C16.3072 8.03682 17.8163 7.73665 19.3404 7.73665C20.8644 7.73665 22.3736 8.03682 23.7816 8.62002C25.1896 9.20323 26.469 10.058 27.5467 11.1357C28.6243 12.2133 29.4792 13.4926 30.0624 14.9006C30.6457 16.3086 30.9458 17.8176 30.9458 19.3416C30.9458 22.4194 29.7231 25.3712 27.5467 27.5476C25.3702 29.7239 22.4183 30.9466 19.3404 30.9466C16.2624 30.9466 13.3105 29.7239 11.1341 27.5476C8.95764 25.3712 7.73493 22.4194 7.73493 19.3416ZM19.3404 4.70506e-08C16.3242 0.000318281 13.35 0.705949 10.6552 2.06053C7.96036 3.4151 5.61968 5.38109 3.8201 7.80144C2.02052 10.2218 0.811927 13.0294 0.290848 16.0001C-0.230231 18.9707 -0.049349 22.0221 0.819045 24.9104C1.68744 27.7987 3.21928 30.4439 5.2922 32.6347C7.36512 34.8255 9.92168 36.5012 12.7577 37.5279C15.5936 38.5547 18.6304 38.904 21.6255 38.548C24.6205 38.192 27.4908 37.1406 30.0071 35.4777L42.394 47.8666C43.1197 48.5923 44.104 49 45.1303 49C46.1566 49 47.1409 48.5923 47.8666 47.8666C48.5923 47.141 49 46.1567 49 45.1304C49 44.1042 48.5923 43.1199 47.8666 42.3942L35.4771 30.0079C37.4043 27.0927 38.5057 23.7099 38.6642 20.2189C38.8228 16.728 38.0325 13.2593 36.3774 10.1815C34.7223 7.10364 32.2642 4.53172 29.2644 2.739C26.2646 0.946287 22.8351 -0.000243663 19.3404 4.70506e-08Z" fill="white"/>
</svg>
