<svg width="60" height="60" viewBox="0 0 60 60" fill="none" xmlns="http://www.w3.org/2000/svg">
<path d="M59.2842 16.7913C59.0132 16.5365 58.6847 16.351 58.3266 16.2505C57.9685 16.1501 57.5915 16.1377 57.2275 16.2144C56.7795 14.6035 56.0175 13.0971 54.9855 11.7816C53.9535 10.4661 52.6718 9.36751 51.214 8.5489C49.7561 7.73028 48.1509 7.20779 46.4906 7.01144C44.8302 6.81509 43.1474 6.94874 41.5389 7.40473C40.5264 5.19531 38.901 3.32303 36.8557 2.0104C34.8103 0.697776 32.4312 0 30.0009 0C27.5707 0 25.1915 0.697776 23.1462 2.0104C21.1009 3.32303 19.4755 5.19531 18.463 7.40473C16.8549 6.94815 15.1723 6.8138 13.5121 7.00938C11.8518 7.20496 10.2466 7.72662 8.78853 8.54441C7.33047 9.3622 6.04832 10.46 5.01573 11.7748C3.98314 13.0895 3.22045 14.5953 2.77147 16.2057C2.39239 16.1279 1.99984 16.1467 1.62993 16.2603C1.26002 16.374 0.924623 16.5788 0.654604 16.8561C0.384586 17.1333 0.188615 17.4739 0.0847206 17.8467C-0.0191735 18.2195 -0.0276537 18.6124 0.0600597 18.9894L8.87503 56.4433C9.11364 57.4559 9.68735 58.3582 10.5031 59.0038C11.3188 59.6494 12.3288 60.0004 13.369 60H46.6329C47.6731 60.0004 48.6831 59.6494 49.4988 59.0038C50.3145 58.3582 50.8883 57.4559 51.1269 56.4433L59.9389 18.9894C60.0309 18.5977 60.0188 18.1888 59.9039 17.8032C59.7891 17.4176 59.5754 17.0688 59.2842 16.7913ZM13.369 55.3846L5.45692 21.7615L16.3747 24.8798L20.4418 55.3846H13.369ZM28.2876 16.6615L18.339 20.6422L7.21357 17.4634C7.53562 16.2983 8.11507 15.2203 8.90919 14.309C9.70332 13.3976 10.6919 12.6762 11.8019 12.1978C12.912 11.7194 14.1153 11.4963 15.3231 11.545C16.5308 11.5936 17.7123 11.9127 18.7803 12.4788C19.0944 12.6454 19.4428 12.7372 19.7982 12.7469C20.1537 12.7567 20.5065 12.6842 20.8293 12.5351C21.1521 12.386 21.4361 12.1643 21.6591 11.8873C21.882 11.6103 22.038 11.2856 22.1148 10.9384C22.5142 9.14538 23.5129 7.54209 24.946 6.39303C26.3792 5.24397 28.1612 4.61779 29.9981 4.61779C31.8349 4.61779 33.6169 5.24397 35.0501 6.39303C36.4832 7.54209 37.4819 9.14538 37.8813 10.9384C37.9581 11.2856 38.1141 11.6103 38.3371 11.8873C38.56 12.1643 38.844 12.386 39.1668 12.5351C39.4896 12.6842 39.8425 12.7567 40.1979 12.7469C40.5533 12.7372 40.9017 12.6454 41.2158 12.4788C42.2841 11.9116 43.466 11.5916 44.6745 11.5424C45.883 11.4932 47.0871 11.7161 48.1979 12.1946C49.3087 12.673 50.2979 13.3949 51.0924 14.3068C51.8869 15.2187 52.4665 16.2975 52.7883 17.4634L41.6658 20.6365L31.7172 16.6557C30.6157 16.217 29.3876 16.2191 28.2876 16.6615ZM46.6329 55.3846H39.5601L43.6272 24.8798L54.545 21.7615L46.6329 55.3846Z" fill="white"/>
</svg>
