<svg width="66" height="62" viewBox="0 0 66 62" fill="none" xmlns="http://www.w3.org/2000/svg">
<path d="M64.3053 30.4921L34.4705 0.678993C34.2557 0.463754 34.0005 0.292992 33.7196 0.176482C33.4387 0.0599714 33.1376 0 32.8335 0C32.5294 0 32.2283 0.0599714 31.9474 0.176482C31.6665 0.292992 31.4114 0.463754 31.1965 0.678993L1.36173 30.4921C0.492539 31.3613 0 32.5419 0 33.7733C0 36.3301 2.0788 38.4089 4.63566 38.4089H7.77922V59.6823C7.77922 60.9643 8.815 62.0001 10.097 62.0001H28.1979V45.7753H36.3103V62.0001H55.57C56.852 62.0001 57.8878 60.9643 57.8878 59.6823V38.4089H61.0314C62.2627 38.4089 63.4434 37.9236 64.3125 37.0472C66.1161 35.2364 66.1161 32.3029 64.3053 30.4921Z" fill="#544747"/>
</svg>
