<svg width="65" height="58" viewBox="0 0 65 58" fill="none" xmlns="http://www.w3.org/2000/svg">
<path d="M19.8489 0L15.3056 4.54333L23.6511 12.8889H6.44444C2.86778 12.8889 0 15.7567 0 19.3333V51.5556C0 55.1322 2.86778 58 6.44444 58H58C61.5767 58 64.4444 55.1322 64.4444 51.5556V19.3333C64.4444 15.7567 61.5767 12.8889 58 12.8889H40.7933L49.1389 4.54333L44.5956 0L32.2222 12.3733L19.8489 0ZM6.44444 19.3333H48.3333V51.5556H6.44444V19.3333ZM56.3889 19.3333C57.2435 19.3333 58.0631 19.6728 58.6673 20.2771C59.2716 20.8814 59.6111 21.701 59.6111 22.5556C59.6111 23.4101 59.2716 24.2297 58.6673 24.834C58.0631 25.4383 57.2435 25.7778 56.3889 25.7778C55.5343 25.7778 54.7147 25.4383 54.1104 24.834C53.5061 24.2297 53.1667 23.4101 53.1667 22.5556C53.1667 21.701 53.5061 20.8814 54.1104 20.2771C54.7147 19.6728 55.5343 19.3333 56.3889 19.3333ZM56.3889 29C57.2435 29 58.0631 29.3395 58.6673 29.9438C59.2716 30.5481 59.6111 31.3676 59.6111 32.2222C59.6111 33.0768 59.2716 33.8964 58.6673 34.5007C58.0631 35.105 57.2435 35.4444 56.3889 35.4444C55.5343 35.4444 54.7147 35.105 54.1104 34.5007C53.5061 33.8964 53.1667 33.0768 53.1667 32.2222C53.1667 31.3676 53.5061 30.5481 54.1104 29.9438C54.7147 29.3395 55.5343 29 56.3889 29Z" fill="white"/>
</svg>
